<?xml version="1.0" encoding="utf-8" standalone="no"?>
<!DOCTYPE svg PUBLIC "-//W3C//DTD SVG 1.1//EN"
  "http://www.w3.org/Graphics/SVG/1.1/DTD/svg11.dtd">
<svg xmlns:xlink="http://www.w3.org/1999/xlink" width="632.929844pt" height="200.91625pt" viewBox="0 0 632.929844 200.91625" xmlns="http://www.w3.org/2000/svg" version="1.1">
 <metadata>
  <rdf:RDF xmlns:dc="http://purl.org/dc/elements/1.1/" xmlns:cc="http://creativecommons.org/ns#" xmlns:rdf="http://www.w3.org/1999/02/22-rdf-syntax-ns#">
   <cc:Work>
    <dc:type rdf:resource="http://purl.org/dc/dcmitype/StillImage"/>
    <dc:date>2025-12-18T11:21:48.302423</dc:date>
    <dc:format>image/svg+xml</dc:format>
    <dc:creator>
     <cc:Agent>
      <dc:title>Matplotlib v3.8.4, https://matplotlib.org/</dc:title>
     </cc:Agent>
    </dc:creator>
   </cc:Work>
  </rdf:RDF>
 </metadata>
 <defs>
  <style type="text/css">*{stroke-linejoin: round; stroke-linecap: butt}</style>
 </defs>
 <g id="figure_1">
  <g id="patch_1">
   <path d="M 0 200.91625 
L 632.929844 200.91625 
L 632.929844 0 
L 0 0 
L 0 200.91625 
z
" style="fill: none"/>
  </g>
  <g id="axes_1">
   <g id="patch_2">
    <path d="M 65.979844 139.96 
L 596.929844 139.96 
L 596.929844 36 
L 65.979844 36 
L 65.979844 139.96 
z
" style="fill: none"/>
   </g>
   <g id="patch_3">
    <path d="M 90.113935 139.96 
L 114.248026 139.96 
L 114.248026 111.5406 
L 90.113935 111.5406 
z
" clip-path="url(#p70d02e2e24)" style="fill: #87cefa; fill-opacity: 0.75"/>
   </g>
   <g id="patch_4">
    <path d="M 114.248026 139.96 
L 138.382116 139.96 
L 138.382116 137.209735 
L 114.248026 137.209735 
z
" clip-path="url(#p70d02e2e24)" style="fill: #87cefa; fill-opacity: 0.75"/>
   </g>
   <g id="patch_5">
    <path d="M 138.382116 139.96 
L 162.516207 139.96 
L 162.516207 134.459471 
L 138.382116 134.459471 
z
" clip-path="url(#p70d02e2e24)" style="fill: #87cefa; fill-opacity: 0.75"/>
   </g>
   <g id="patch_6">
    <path d="M 162.516207 139.96 
L 186.650298 139.96 
L 186.650298 135.376226 
L 162.516207 135.376226 
z
" clip-path="url(#p70d02e2e24)" style="fill: #87cefa; fill-opacity: 0.75"/>
   </g>
   <g id="patch_7">
    <path d="M 186.650298 139.96 
L 210.784389 139.96 
L 210.784389 134.459471 
L 186.650298 134.459471 
z
" clip-path="url(#p70d02e2e24)" style="fill: #87cefa; fill-opacity: 0.75"/>
   </g>
   <g id="patch_8">
    <path d="M 210.784389 139.96 
L 234.91848 139.96 
L 234.91848 133.542716 
L 210.784389 133.542716 
z
" clip-path="url(#p70d02e2e24)" style="fill: #87cefa; fill-opacity: 0.75"/>
   </g>
   <g id="patch_9">
    <path d="M 234.91848 139.96 
L 259.052571 139.96 
L 259.052571 138.12649 
L 234.91848 138.12649 
z
" clip-path="url(#p70d02e2e24)" style="fill: #87cefa; fill-opacity: 0.75"/>
   </g>
   <g id="patch_10">
    <path d="M 259.052571 139.96 
L 283.186662 139.96 
L 283.186662 133.542716 
L 259.052571 133.542716 
z
" clip-path="url(#p70d02e2e24)" style="fill: #87cefa; fill-opacity: 0.75"/>
   </g>
   <g id="patch_11">
    <path d="M 283.186662 139.96 
L 307.320753 139.96 
L 307.320753 134.459471 
L 283.186662 134.459471 
z
" clip-path="url(#p70d02e2e24)" style="fill: #87cefa; fill-opacity: 0.75"/>
   </g>
   <g id="patch_12">
    <path d="M 307.320753 139.96 
L 331.454844 139.96 
L 331.454844 135.376226 
L 307.320753 135.376226 
z
" clip-path="url(#p70d02e2e24)" style="fill: #87cefa; fill-opacity: 0.75"/>
   </g>
   <g id="patch_13">
    <path d="M 331.454844 139.96 
L 355.588935 139.96 
L 355.588935 131.709206 
L 331.454844 131.709206 
z
" clip-path="url(#p70d02e2e24)" style="fill: #87cefa; fill-opacity: 0.75"/>
   </g>
   <g id="patch_14">
    <path d="M 355.588935 139.96 
L 379.723026 139.96 
L 379.723026 125.291922 
L 355.588935 125.291922 
z
" clip-path="url(#p70d02e2e24)" style="fill: #87cefa; fill-opacity: 0.75"/>
   </g>
   <g id="patch_15">
    <path d="M 379.723026 139.96 
L 403.857116 139.96 
L 403.857116 124.375168 
L 379.723026 124.375168 
z
" clip-path="url(#p70d02e2e24)" style="fill: #87cefa; fill-opacity: 0.75"/>
   </g>
   <g id="patch_16">
    <path d="M 403.857116 139.96 
L 427.991207 139.96 
L 427.991207 130.792451 
L 403.857116 130.792451 
z
" clip-path="url(#p70d02e2e24)" style="fill: #87cefa; fill-opacity: 0.75"/>
   </g>
   <g id="patch_17">
    <path d="M 427.991207 139.96 
L 452.125298 139.96 
L 452.125298 133.542716 
L 427.991207 133.542716 
z
" clip-path="url(#p70d02e2e24)" style="fill: #87cefa; fill-opacity: 0.75"/>
   </g>
   <g id="patch_18">
    <path d="M 452.125298 139.96 
L 476.259389 139.96 
L 476.259389 128.958942 
L 452.125298 128.958942 
z
" clip-path="url(#p70d02e2e24)" style="fill: #87cefa; fill-opacity: 0.75"/>
   </g>
   <g id="patch_19">
    <path d="M 476.259389 139.96 
L 500.39348 139.96 
L 500.39348 128.958942 
L 476.259389 128.958942 
z
" clip-path="url(#p70d02e2e24)" style="fill: #87cefa; fill-opacity: 0.75"/>
   </g>
   <g id="patch_20">
    <path d="M 500.39348 139.96 
L 524.527571 139.96 
L 524.527571 129.875697 
L 500.39348 129.875697 
z
" clip-path="url(#p70d02e2e24)" style="fill: #87cefa; fill-opacity: 0.75"/>
   </g>
   <g id="patch_21">
    <path d="M 524.527571 139.96 
L 548.661662 139.96 
L 548.661662 126.208677 
L 524.527571 126.208677 
z
" clip-path="url(#p70d02e2e24)" style="fill: #87cefa; fill-opacity: 0.75"/>
   </g>
   <g id="patch_22">
    <path d="M 548.661662 139.96 
L 572.795753 139.96 
L 572.795753 40.950476 
L 548.661662 40.950476 
z
" clip-path="url(#p70d02e2e24)" style="fill: #87cefa; fill-opacity: 0.75"/>
   </g>
   <g id="matplotlib.axis_1">
    <g id="xtick_1">
     <g id="line2d_1">
      <defs>
       <path id="macda5d5831" d="M 0 0 
L 0 3.5 
" style="stroke: #000000; stroke-width: 0.5"/>
      </defs>
      <g>
       <use xlink:href="#macda5d5831" x="90.113935" y="139.96" style="stroke: #000000; stroke-width: 0.5"/>
      </g>
     </g>
     <g id="text_1">
      <text style="font: 200 7px 'Open Sans', sans-serif; text-anchor: middle" x="90.113935" y="152.278906" transform="rotate(-0 90.113935 152.278906)">0.0</text>
     </g>
    </g>
    <g id="xtick_2">
     <g id="line2d_2">
      <g>
       <use xlink:href="#macda5d5831" x="186.650298" y="139.96" style="stroke: #000000; stroke-width: 0.5"/>
      </g>
     </g>
     <g id="text_2">
      <text style="font: 200 7px 'Open Sans', sans-serif; text-anchor: middle" x="186.650298" y="152.278906" transform="rotate(-0 186.650298 152.278906)">0.2</text>
     </g>
    </g>
    <g id="xtick_3">
     <g id="line2d_3">
      <g>
       <use xlink:href="#macda5d5831" x="283.186662" y="139.96" style="stroke: #000000; stroke-width: 0.5"/>
      </g>
     </g>
     <g id="text_3">
      <text style="font: 200 7px 'Open Sans', sans-serif; text-anchor: middle" x="283.186662" y="152.278906" transform="rotate(-0 283.186662 152.278906)">0.4</text>
     </g>
    </g>
    <g id="xtick_4">
     <g id="line2d_4">
      <g>
       <use xlink:href="#macda5d5831" x="379.723026" y="139.96" style="stroke: #000000; stroke-width: 0.5"/>
      </g>
     </g>
     <g id="text_4">
      <text style="font: 200 7px 'Open Sans', sans-serif; text-anchor: middle" x="379.723026" y="152.278906" transform="rotate(-0 379.723026 152.278906)">0.6</text>
     </g>
    </g>
    <g id="xtick_5">
     <g id="line2d_5">
      <g>
       <use xlink:href="#macda5d5831" x="476.259389" y="139.96" style="stroke: #000000; stroke-width: 0.5"/>
      </g>
     </g>
     <g id="text_5">
      <text style="font: 200 7px 'Open Sans', sans-serif; text-anchor: middle" x="476.259389" y="152.278906" transform="rotate(-0 476.259389 152.278906)">0.8</text>
     </g>
    </g>
    <g id="xtick_6">
     <g id="line2d_6">
      <g>
       <use xlink:href="#macda5d5831" x="572.795753" y="139.96" style="stroke: #000000; stroke-width: 0.5"/>
      </g>
     </g>
     <g id="text_6">
      <text style="font: 200 7px 'Open Sans', sans-serif; text-anchor: middle" x="572.795753" y="152.278906" transform="rotate(-0 572.795753 152.278906)">1.0</text>
     </g>
    </g>
    <g id="text_7">
     <text style="font: 500 7px 'Open Sans', sans-serif; text-anchor: middle" x="331.454844" y="163.241719" transform="rotate(-0 331.454844 163.241719)">Max_KmerMatch_ToHm</text>
    </g>
   </g>
   <g id="matplotlib.axis_2">
    <g id="ytick_1">
     <g id="line2d_7">
      <defs>
       <path id="mac9fd5ed59" d="M 0 0 
L -3.5 0 
" style="stroke: #000000; stroke-width: 0.5"/>
      </defs>
      <g>
       <use xlink:href="#mac9fd5ed59" x="65.979844" y="139.96" style="stroke: #000000; stroke-width: 0.5"/>
      </g>
     </g>
     <g id="text_8">
      <text style="font: 200 7px 'Open Sans', sans-serif; text-anchor: end" x="58.979844" y="142.619453" transform="rotate(-0 58.979844 142.619453)">0</text>
     </g>
    </g>
    <g id="ytick_2">
     <g id="line2d_8">
      <g>
       <use xlink:href="#mac9fd5ed59" x="65.979844" y="121.624903" style="stroke: #000000; stroke-width: 0.5"/>
      </g>
     </g>
     <g id="text_9">
      <text style="font: 200 7px 'Open Sans', sans-serif; text-anchor: end" x="58.979844" y="124.284356" transform="rotate(-0 58.979844 124.284356)">20</text>
     </g>
    </g>
    <g id="ytick_3">
     <g id="line2d_9">
      <g>
       <use xlink:href="#mac9fd5ed59" x="65.979844" y="103.289806" style="stroke: #000000; stroke-width: 0.5"/>
      </g>
     </g>
     <g id="text_10">
      <text style="font: 200 7px 'Open Sans', sans-serif; text-anchor: end" x="58.979844" y="105.949259" transform="rotate(-0 58.979844 105.949259)">40</text>
     </g>
    </g>
    <g id="ytick_4">
     <g id="line2d_10">
      <g>
       <use xlink:href="#mac9fd5ed59" x="65.979844" y="84.954709" style="stroke: #000000; stroke-width: 0.5"/>
      </g>
     </g>
     <g id="text_11">
      <text style="font: 200 7px 'Open Sans', sans-serif; text-anchor: end" x="58.979844" y="87.614162" transform="rotate(-0 58.979844 87.614162)">60</text>
     </g>
    </g>
    <g id="ytick_5">
     <g id="line2d_11">
      <g>
       <use xlink:href="#mac9fd5ed59" x="65.979844" y="66.619612" style="stroke: #000000; stroke-width: 0.5"/>
      </g>
     </g>
     <g id="text_12">
      <text style="font: 200 7px 'Open Sans', sans-serif; text-anchor: end" x="58.979844" y="69.279065" transform="rotate(-0 58.979844 69.279065)">80</text>
     </g>
    </g>
    <g id="ytick_6">
     <g id="line2d_12">
      <g>
       <use xlink:href="#mac9fd5ed59" x="65.979844" y="48.284515" style="stroke: #000000; stroke-width: 0.5"/>
      </g>
     </g>
     <g id="text_13">
      <text style="font: 200 7px 'Open Sans', sans-serif; text-anchor: end" x="58.979844" y="50.943968" transform="rotate(-0 58.979844 50.943968)">100</text>
     </g>
    </g>
    <g id="text_14">
     <text style="font: 500 7px 'Open Sans', sans-serif; text-anchor: middle" x="41.307969" y="87.98" transform="rotate(-90 41.307969 87.98)">Frequency</text>
    </g>
   </g>
   <g id="patch_23">
    <path d="M 65.979844 139.96 
L 65.979844 36 
" style="fill: none; stroke: #000000; stroke-width: 0.5; stroke-linejoin: miter; stroke-linecap: square"/>
   </g>
   <g id="patch_24">
    <path d="M 65.979844 139.96 
L 596.929844 139.96 
" style="fill: none; stroke: #000000; stroke-width: 0.5; stroke-linejoin: miter; stroke-linecap: square"/>
   </g>
  </g>
 </g>
 <defs>
  <clipPath id="p70d02e2e24">
   <rect x="65.979844" y="36" width="530.95" height="103.96"/>
  </clipPath>
 </defs>
</svg>
