<?xml version="1.0" encoding="utf-8" standalone="no"?>
<!DOCTYPE svg PUBLIC "-//W3C//DTD SVG 1.1//EN"
  "http://www.w3.org/Graphics/SVG/1.1/DTD/svg11.dtd">
<svg xmlns:xlink="http://www.w3.org/1999/xlink" width="416.929844pt" height="157.723906pt" viewBox="0 0 416.929844 157.723906" xmlns="http://www.w3.org/2000/svg" version="1.1">
 <metadata>
  <rdf:RDF xmlns:dc="http://purl.org/dc/elements/1.1/" xmlns:cc="http://creativecommons.org/ns#" xmlns:rdf="http://www.w3.org/1999/02/22-rdf-syntax-ns#">
   <cc:Work>
    <dc:type rdf:resource="http://purl.org/dc/dcmitype/StillImage"/>
    <dc:date>2025-12-18T11:19:10.907818</dc:date>
    <dc:format>image/svg+xml</dc:format>
    <dc:creator>
     <cc:Agent>
      <dc:title>Matplotlib v3.8.4, https://matplotlib.org/</dc:title>
     </cc:Agent>
    </dc:creator>
   </cc:Work>
  </rdf:RDF>
 </metadata>
 <defs>
  <style type="text/css">*{stroke-linejoin: round; stroke-linecap: butt}</style>
 </defs>
 <g id="figure_1">
  <g id="patch_1">
   <path d="M 0 157.723906 
L 416.929844 157.723906 
L 416.929844 0 
L 0 0 
L 0 157.723906 
z
" style="fill: none"/>
  </g>
  <g id="axes_1">
   <g id="patch_2">
    <path d="M 61.984375 96.76 
L 198.719375 96.76 
L 198.719375 36 
L 61.984375 36 
L 61.984375 96.76 
z
" style="fill: none"/>
   </g>
   <g id="patch_3">
    <path d="M 61.984375 96.76 
L 64.263292 96.76 
L 64.263292 38.893333 
L 61.984375 38.893333 
z
" clip-path="url(#p8f21771e74)" style="fill-opacity: 0.6"/>
   </g>
   <g id="patch_4">
    <path d="M 64.263292 96.76 
L 66.542208 96.76 
L 66.542208 54.264167 
L 64.263292 54.264167 
z
" clip-path="url(#p8f21771e74)" style="fill-opacity: 0.6"/>
   </g>
   <g id="patch_5">
    <path d="M 66.542208 96.76 
L 68.821125 96.76 
L 68.821125 75.964167 
L 66.542208 75.964167 
z
" clip-path="url(#p8f21771e74)" style="fill-opacity: 0.6"/>
   </g>
   <g id="patch_6">
    <path d="M 68.821125 96.76 
L 71.100042 96.76 
L 71.100042 71.443333 
L 68.821125 71.443333 
z
" clip-path="url(#p8f21771e74)" style="fill-opacity: 0.6"/>
   </g>
   <g id="patch_7">
    <path d="M 71.100042 96.76 
L 73.378958 96.76 
L 73.378958 76.868333 
L 71.100042 76.868333 
z
" clip-path="url(#p8f21771e74)" style="fill-opacity: 0.6"/>
   </g>
   <g id="patch_8">
    <path d="M 73.378958 96.76 
L 75.657875 96.76 
L 75.657875 87.718333 
L 73.378958 87.718333 
z
" clip-path="url(#p8f21771e74)" style="fill-opacity: 0.6"/>
   </g>
   <g id="patch_9">
    <path d="M 75.657875 96.76 
L 77.936792 96.76 
L 77.936792 88.6225 
L 75.657875 88.6225 
z
" clip-path="url(#p8f21771e74)" style="fill-opacity: 0.6"/>
   </g>
   <g id="patch_10">
    <path d="M 77.936792 96.76 
L 80.215708 96.76 
L 80.215708 87.718333 
L 77.936792 87.718333 
z
" clip-path="url(#p8f21771e74)" style="fill-opacity: 0.6"/>
   </g>
   <g id="patch_11">
    <path d="M 80.215708 96.76 
L 82.494625 96.76 
L 82.494625 83.1975 
L 80.215708 83.1975 
z
" clip-path="url(#p8f21771e74)" style="fill-opacity: 0.6"/>
   </g>
   <g id="patch_12">
    <path d="M 82.494625 96.76 
L 84.773542 96.76 
L 84.773542 77.7725 
L 82.494625 77.7725 
z
" clip-path="url(#p8f21771e74)" style="fill-opacity: 0.6"/>
   </g>
   <g id="patch_13">
    <path d="M 84.773542 96.76 
L 87.052458 96.76 
L 87.052458 86.814167 
L 84.773542 86.814167 
z
" clip-path="url(#p8f21771e74)" style="fill-opacity: 0.6"/>
   </g>
   <g id="patch_14">
    <path d="M 87.052458 96.76 
L 89.331375 96.76 
L 89.331375 91.335 
L 87.052458 91.335 
z
" clip-path="url(#p8f21771e74)" style="fill-opacity: 0.6"/>
   </g>
   <g id="patch_15">
    <path d="M 89.331375 96.76 
L 91.610292 96.76 
L 91.610292 94.0475 
L 89.331375 94.0475 
z
" clip-path="url(#p8f21771e74)" style="fill-opacity: 0.6"/>
   </g>
   <g id="patch_16">
    <path d="M 91.610292 96.76 
L 93.889208 96.76 
L 93.889208 94.0475 
L 91.610292 94.0475 
z
" clip-path="url(#p8f21771e74)" style="fill-opacity: 0.6"/>
   </g>
   <g id="patch_17">
    <path d="M 93.889208 96.76 
L 96.168125 96.76 
L 96.168125 91.335 
L 93.889208 91.335 
z
" clip-path="url(#p8f21771e74)" style="fill-opacity: 0.6"/>
   </g>
   <g id="patch_18">
    <path d="M 96.168125 96.76 
L 98.447042 96.76 
L 98.447042 94.951667 
L 96.168125 94.951667 
z
" clip-path="url(#p8f21771e74)" style="fill-opacity: 0.6"/>
   </g>
   <g id="patch_19">
    <path d="M 98.447042 96.76 
L 100.725958 96.76 
L 100.725958 94.951667 
L 98.447042 94.951667 
z
" clip-path="url(#p8f21771e74)" style="fill-opacity: 0.6"/>
   </g>
   <g id="patch_20">
    <path d="M 100.725958 96.76 
L 103.004875 96.76 
L 103.004875 91.335 
L 100.725958 91.335 
z
" clip-path="url(#p8f21771e74)" style="fill-opacity: 0.6"/>
   </g>
   <g id="patch_21">
    <path d="M 103.004875 96.76 
L 105.283792 96.76 
L 105.283792 94.951667 
L 103.004875 94.951667 
z
" clip-path="url(#p8f21771e74)" style="fill-opacity: 0.6"/>
   </g>
   <g id="patch_22">
    <path d="M 105.283792 96.76 
L 107.562708 96.76 
L 107.562708 93.143333 
L 105.283792 93.143333 
z
" clip-path="url(#p8f21771e74)" style="fill-opacity: 0.6"/>
   </g>
   <g id="patch_23">
    <path d="M 107.562708 96.76 
L 109.841625 96.76 
L 109.841625 95.855833 
L 107.562708 95.855833 
z
" clip-path="url(#p8f21771e74)" style="fill-opacity: 0.6"/>
   </g>
   <g id="patch_24">
    <path d="M 109.841625 96.76 
L 112.120542 96.76 
L 112.120542 95.855833 
L 109.841625 95.855833 
z
" clip-path="url(#p8f21771e74)" style="fill-opacity: 0.6"/>
   </g>
   <g id="patch_25">
    <path d="M 112.120542 96.76 
L 114.399458 96.76 
L 114.399458 91.335 
L 112.120542 91.335 
z
" clip-path="url(#p8f21771e74)" style="fill-opacity: 0.6"/>
   </g>
   <g id="patch_26">
    <path d="M 114.399458 96.76 
L 116.678375 96.76 
L 116.678375 94.951667 
L 114.399458 94.951667 
z
" clip-path="url(#p8f21771e74)" style="fill-opacity: 0.6"/>
   </g>
   <g id="patch_27">
    <path d="M 116.678375 96.76 
L 118.957292 96.76 
L 118.957292 95.855833 
L 116.678375 95.855833 
z
" clip-path="url(#p8f21771e74)" style="fill-opacity: 0.6"/>
   </g>
   <g id="patch_28">
    <path d="M 118.957292 96.76 
L 121.236208 96.76 
L 121.236208 96.76 
L 118.957292 96.76 
z
" clip-path="url(#p8f21771e74)" style="fill-opacity: 0.6"/>
   </g>
   <g id="patch_29">
    <path d="M 121.236208 96.76 
L 123.515125 96.76 
L 123.515125 95.855833 
L 121.236208 95.855833 
z
" clip-path="url(#p8f21771e74)" style="fill-opacity: 0.6"/>
   </g>
   <g id="patch_30">
    <path d="M 123.515125 96.76 
L 125.794042 96.76 
L 125.794042 96.76 
L 123.515125 96.76 
z
" clip-path="url(#p8f21771e74)" style="fill-opacity: 0.6"/>
   </g>
   <g id="patch_31">
    <path d="M 125.794042 96.76 
L 128.072958 96.76 
L 128.072958 96.76 
L 125.794042 96.76 
z
" clip-path="url(#p8f21771e74)" style="fill-opacity: 0.6"/>
   </g>
   <g id="patch_32">
    <path d="M 128.072958 96.76 
L 130.351875 96.76 
L 130.351875 95.855833 
L 128.072958 95.855833 
z
" clip-path="url(#p8f21771e74)" style="fill-opacity: 0.6"/>
   </g>
   <g id="patch_33">
    <path d="M 130.351875 96.76 
L 132.630792 96.76 
L 132.630792 95.855833 
L 130.351875 95.855833 
z
" clip-path="url(#p8f21771e74)" style="fill-opacity: 0.6"/>
   </g>
   <g id="patch_34">
    <path d="M 132.630792 96.76 
L 134.909708 96.76 
L 134.909708 95.855833 
L 132.630792 95.855833 
z
" clip-path="url(#p8f21771e74)" style="fill-opacity: 0.6"/>
   </g>
   <g id="patch_35">
    <path d="M 134.909708 96.76 
L 137.188625 96.76 
L 137.188625 94.951667 
L 134.909708 94.951667 
z
" clip-path="url(#p8f21771e74)" style="fill-opacity: 0.6"/>
   </g>
   <g id="patch_36">
    <path d="M 137.188625 96.76 
L 139.467542 96.76 
L 139.467542 96.76 
L 137.188625 96.76 
z
" clip-path="url(#p8f21771e74)" style="fill-opacity: 0.6"/>
   </g>
   <g id="patch_37">
    <path d="M 139.467542 96.76 
L 141.746458 96.76 
L 141.746458 96.76 
L 139.467542 96.76 
z
" clip-path="url(#p8f21771e74)" style="fill-opacity: 0.6"/>
   </g>
   <g id="patch_38">
    <path d="M 141.746458 96.76 
L 144.025375 96.76 
L 144.025375 94.951667 
L 141.746458 94.951667 
z
" clip-path="url(#p8f21771e74)" style="fill-opacity: 0.6"/>
   </g>
   <g id="patch_39">
    <path d="M 144.025375 96.76 
L 146.304292 96.76 
L 146.304292 94.951667 
L 144.025375 94.951667 
z
" clip-path="url(#p8f21771e74)" style="fill-opacity: 0.6"/>
   </g>
   <g id="patch_40">
    <path d="M 146.304292 96.76 
L 148.583208 96.76 
L 148.583208 95.855833 
L 146.304292 95.855833 
z
" clip-path="url(#p8f21771e74)" style="fill-opacity: 0.6"/>
   </g>
   <g id="patch_41">
    <path d="M 148.583208 96.76 
L 150.862125 96.76 
L 150.862125 96.76 
L 148.583208 96.76 
z
" clip-path="url(#p8f21771e74)" style="fill-opacity: 0.6"/>
   </g>
   <g id="patch_42">
    <path d="M 150.862125 96.76 
L 153.141042 96.76 
L 153.141042 95.855833 
L 150.862125 95.855833 
z
" clip-path="url(#p8f21771e74)" style="fill-opacity: 0.6"/>
   </g>
   <g id="patch_43">
    <path d="M 153.141042 96.76 
L 155.419958 96.76 
L 155.419958 95.855833 
L 153.141042 95.855833 
z
" clip-path="url(#p8f21771e74)" style="fill-opacity: 0.6"/>
   </g>
   <g id="patch_44">
    <path d="M 155.419958 96.76 
L 157.698875 96.76 
L 157.698875 96.76 
L 155.419958 96.76 
z
" clip-path="url(#p8f21771e74)" style="fill-opacity: 0.6"/>
   </g>
   <g id="patch_45">
    <path d="M 157.698875 96.76 
L 159.977792 96.76 
L 159.977792 96.76 
L 157.698875 96.76 
z
" clip-path="url(#p8f21771e74)" style="fill-opacity: 0.6"/>
   </g>
   <g id="patch_46">
    <path d="M 159.977792 96.76 
L 162.256708 96.76 
L 162.256708 96.76 
L 159.977792 96.76 
z
" clip-path="url(#p8f21771e74)" style="fill-opacity: 0.6"/>
   </g>
   <g id="patch_47">
    <path d="M 162.256708 96.76 
L 164.535625 96.76 
L 164.535625 95.855833 
L 162.256708 95.855833 
z
" clip-path="url(#p8f21771e74)" style="fill-opacity: 0.6"/>
   </g>
   <g id="patch_48">
    <path d="M 164.535625 96.76 
L 166.814542 96.76 
L 166.814542 96.76 
L 164.535625 96.76 
z
" clip-path="url(#p8f21771e74)" style="fill-opacity: 0.6"/>
   </g>
   <g id="patch_49">
    <path d="M 166.814542 96.76 
L 169.093458 96.76 
L 169.093458 95.855833 
L 166.814542 95.855833 
z
" clip-path="url(#p8f21771e74)" style="fill-opacity: 0.6"/>
   </g>
   <g id="patch_50">
    <path d="M 169.093458 96.76 
L 171.372375 96.76 
L 171.372375 94.951667 
L 169.093458 94.951667 
z
" clip-path="url(#p8f21771e74)" style="fill-opacity: 0.6"/>
   </g>
   <g id="patch_51">
    <path d="M 171.372375 96.76 
L 173.651292 96.76 
L 173.651292 95.855833 
L 171.372375 95.855833 
z
" clip-path="url(#p8f21771e74)" style="fill-opacity: 0.6"/>
   </g>
   <g id="patch_52">
    <path d="M 173.651292 96.76 
L 175.930208 96.76 
L 175.930208 96.76 
L 173.651292 96.76 
z
" clip-path="url(#p8f21771e74)" style="fill-opacity: 0.6"/>
   </g>
   <g id="patch_53">
    <path d="M 175.930208 96.76 
L 178.209125 96.76 
L 178.209125 96.76 
L 175.930208 96.76 
z
" clip-path="url(#p8f21771e74)" style="fill-opacity: 0.6"/>
   </g>
   <g id="patch_54">
    <path d="M 178.209125 96.76 
L 180.488042 96.76 
L 180.488042 96.76 
L 178.209125 96.76 
z
" clip-path="url(#p8f21771e74)" style="fill-opacity: 0.6"/>
   </g>
   <g id="patch_55">
    <path d="M 180.488042 96.76 
L 182.766958 96.76 
L 182.766958 96.76 
L 180.488042 96.76 
z
" clip-path="url(#p8f21771e74)" style="fill-opacity: 0.6"/>
   </g>
   <g id="patch_56">
    <path d="M 182.766958 96.76 
L 185.045875 96.76 
L 185.045875 96.76 
L 182.766958 96.76 
z
" clip-path="url(#p8f21771e74)" style="fill-opacity: 0.6"/>
   </g>
   <g id="patch_57">
    <path d="M 185.045875 96.76 
L 187.324792 96.76 
L 187.324792 96.76 
L 185.045875 96.76 
z
" clip-path="url(#p8f21771e74)" style="fill-opacity: 0.6"/>
   </g>
   <g id="patch_58">
    <path d="M 187.324792 96.76 
L 189.603708 96.76 
L 189.603708 96.76 
L 187.324792 96.76 
z
" clip-path="url(#p8f21771e74)" style="fill-opacity: 0.6"/>
   </g>
   <g id="patch_59">
    <path d="M 189.603708 96.76 
L 191.882625 96.76 
L 191.882625 96.76 
L 189.603708 96.76 
z
" clip-path="url(#p8f21771e74)" style="fill-opacity: 0.6"/>
   </g>
   <g id="patch_60">
    <path d="M 191.882625 96.76 
L 194.161542 96.76 
L 194.161542 96.76 
L 191.882625 96.76 
z
" clip-path="url(#p8f21771e74)" style="fill-opacity: 0.6"/>
   </g>
   <g id="patch_61">
    <path d="M 194.161542 96.76 
L 196.440458 96.76 
L 196.440458 95.855833 
L 194.161542 95.855833 
z
" clip-path="url(#p8f21771e74)" style="fill-opacity: 0.6"/>
   </g>
   <g id="patch_62">
    <path d="M 196.440458 96.76 
L 198.719375 96.76 
L 198.719375 96.76 
L 196.440458 96.76 
z
" clip-path="url(#p8f21771e74)" style="fill-opacity: 0.6"/>
   </g>
   <g id="patch_63">
    <path d="M 198.719375 96.76 
L 200.998292 96.76 
L 200.998292 96.76 
L 198.719375 96.76 
z
" clip-path="url(#p8f21771e74)" style="fill-opacity: 0.6"/>
   </g>
   <g id="matplotlib.axis_1">
    <g id="xtick_1">
     <g id="line2d_1">
      <defs>
       <path id="med4072a476" d="M 0 0 
L 0 3.5 
" style="stroke: #000000; stroke-width: 0.5"/>
      </defs>
      <g>
       <use xlink:href="#med4072a476" x="61.984375" y="96.76" style="stroke: #000000; stroke-width: 0.5"/>
      </g>
     </g>
     <g id="text_1">
      <text style="font: 200 7px 'Open Sans', sans-serif; text-anchor: middle" x="61.984375" y="109.078906" transform="rotate(-0 61.984375 109.078906)">0</text>
     </g>
    </g>
    <g id="xtick_2">
     <g id="line2d_2">
      <g>
       <use xlink:href="#med4072a476" x="84.773542" y="96.76" style="stroke: #000000; stroke-width: 0.5"/>
      </g>
     </g>
     <g id="text_2">
      <text style="font: 200 7px 'Open Sans', sans-serif; text-anchor: middle" x="84.773542" y="109.078906" transform="rotate(-0 84.773542 109.078906)">250</text>
     </g>
    </g>
    <g id="xtick_3">
     <g id="line2d_3">
      <g>
       <use xlink:href="#med4072a476" x="107.562708" y="96.76" style="stroke: #000000; stroke-width: 0.5"/>
      </g>
     </g>
     <g id="text_3">
      <text style="font: 200 7px 'Open Sans', sans-serif; text-anchor: middle" x="107.562708" y="109.078906" transform="rotate(-0 107.562708 109.078906)">500</text>
     </g>
    </g>
    <g id="xtick_4">
     <g id="line2d_4">
      <g>
       <use xlink:href="#med4072a476" x="130.351875" y="96.76" style="stroke: #000000; stroke-width: 0.5"/>
      </g>
     </g>
     <g id="text_4">
      <text style="font: 200 7px 'Open Sans', sans-serif; text-anchor: middle" x="130.351875" y="109.078906" transform="rotate(-0 130.351875 109.078906)">750</text>
     </g>
    </g>
    <g id="xtick_5">
     <g id="line2d_5">
      <g>
       <use xlink:href="#med4072a476" x="153.141042" y="96.76" style="stroke: #000000; stroke-width: 0.5"/>
      </g>
     </g>
     <g id="text_5">
      <text style="font: 200 7px 'Open Sans', sans-serif; text-anchor: middle" x="153.141042" y="109.078906" transform="rotate(-0 153.141042 109.078906)">1000</text>
     </g>
    </g>
    <g id="xtick_6">
     <g id="line2d_6">
      <g>
       <use xlink:href="#med4072a476" x="175.930208" y="96.76" style="stroke: #000000; stroke-width: 0.5"/>
      </g>
     </g>
     <g id="text_6">
      <text style="font: 200 7px 'Open Sans', sans-serif; text-anchor: middle" x="175.930208" y="109.078906" transform="rotate(-0 175.930208 109.078906)">1250</text>
     </g>
    </g>
    <g id="xtick_7">
     <g id="line2d_7">
      <g>
       <use xlink:href="#med4072a476" x="198.719375" y="96.76" style="stroke: #000000; stroke-width: 0.5"/>
      </g>
     </g>
     <g id="text_7">
      <text style="font: 200 7px 'Open Sans', sans-serif; text-anchor: middle" x="198.719375" y="109.078906" transform="rotate(-0 198.719375 109.078906)">1500</text>
     </g>
    </g>
    <g id="text_8">
     <text style="font: 500 7px 'Open Sans', sans-serif; text-anchor: middle" x="130.351875" y="120.041719" transform="rotate(-0 130.351875 120.041719)">Event Length (bp)</text>
    </g>
   </g>
   <g id="matplotlib.axis_2">
    <g id="ytick_1">
     <g id="line2d_8">
      <defs>
       <path id="mce13686bc0" d="M 0 0 
L -3.5 0 
" style="stroke: #000000; stroke-width: 0.5"/>
      </defs>
      <g>
       <use xlink:href="#mce13686bc0" x="61.984375" y="96.76" style="stroke: #000000; stroke-width: 0.5"/>
      </g>
     </g>
     <g id="text_9">
      <text style="font: 200 7px 'Open Sans', sans-serif; text-anchor: end" x="54.984375" y="99.419453" transform="rotate(-0 54.984375 99.419453)">0</text>
     </g>
    </g>
    <g id="ytick_2">
     <g id="line2d_9">
      <g>
       <use xlink:href="#mce13686bc0" x="61.984375" y="78.676667" style="stroke: #000000; stroke-width: 0.5"/>
      </g>
     </g>
     <g id="text_10">
      <text style="font: 200 7px 'Open Sans', sans-serif; text-anchor: end" x="54.984375" y="81.33612" transform="rotate(-0 54.984375 81.33612)">20</text>
     </g>
    </g>
    <g id="ytick_3">
     <g id="line2d_10">
      <g>
       <use xlink:href="#mce13686bc0" x="61.984375" y="60.593333" style="stroke: #000000; stroke-width: 0.5"/>
      </g>
     </g>
     <g id="text_11">
      <text style="font: 200 7px 'Open Sans', sans-serif; text-anchor: end" x="54.984375" y="63.252786" transform="rotate(-0 54.984375 63.252786)">40</text>
     </g>
    </g>
    <g id="ytick_4">
     <g id="line2d_11">
      <g>
       <use xlink:href="#mce13686bc0" x="61.984375" y="42.51" style="stroke: #000000; stroke-width: 0.5"/>
      </g>
     </g>
     <g id="text_12">
      <text style="font: 200 7px 'Open Sans', sans-serif; text-anchor: end" x="54.984375" y="45.169453" transform="rotate(-0 54.984375 45.169453)">60</text>
     </g>
    </g>
    <g id="text_13">
     <text style="font: 500 7px 'Open Sans', sans-serif; text-anchor: middle" x="41.318906" y="66.38" transform="rotate(-90 41.318906 66.38)">Count</text>
    </g>
   </g>
   <g id="patch_64">
    <path d="M 61.984375 96.76 
L 61.984375 36 
" style="fill: none; stroke: #000000; stroke-width: 0.5; stroke-linejoin: miter; stroke-linecap: square"/>
   </g>
   <g id="patch_65">
    <path d="M 61.984375 96.76 
L 198.719375 96.76 
" style="fill: none; stroke: #000000; stroke-width: 0.5; stroke-linejoin: miter; stroke-linecap: square"/>
   </g>
  </g>
  <g id="axes_2">
   <g id="patch_66">
    <path d="M 240.199375 96.76 
L 376.934375 96.76 
L 376.934375 36 
L 240.199375 36 
L 240.199375 96.76 
z
" style="fill: none"/>
   </g>
   <g id="patch_67">
    <path d="M 240.199375 96.76 
L 242.934075 96.76 
L 242.934075 96.76 
L 240.199375 96.76 
z
" clip-path="url(#pc46a7255b3)" style="fill-opacity: 0.6"/>
   </g>
   <g id="patch_68">
    <path d="M 242.934075 96.76 
L 245.668775 96.76 
L 245.668775 96.76 
L 242.934075 96.76 
z
" clip-path="url(#pc46a7255b3)" style="fill-opacity: 0.6"/>
   </g>
   <g id="patch_69">
    <path d="M 245.668775 96.76 
L 248.403475 96.76 
L 248.403475 96.76 
L 245.668775 96.76 
z
" clip-path="url(#pc46a7255b3)" style="fill-opacity: 0.6"/>
   </g>
   <g id="patch_70">
    <path d="M 248.403475 96.76 
L 251.138175 96.76 
L 251.138175 96.76 
L 248.403475 96.76 
z
" clip-path="url(#pc46a7255b3)" style="fill-opacity: 0.6"/>
   </g>
   <g id="patch_71">
    <path d="M 251.138175 96.76 
L 253.872875 96.76 
L 253.872875 38.893333 
L 251.138175 38.893333 
z
" clip-path="url(#pc46a7255b3)" style="fill-opacity: 0.6"/>
   </g>
   <g id="patch_72">
    <path d="M 253.872875 96.76 
L 256.607575 96.76 
L 256.607575 53.552889 
L 253.872875 53.552889 
z
" clip-path="url(#pc46a7255b3)" style="fill-opacity: 0.6"/>
   </g>
   <g id="patch_73">
    <path d="M 256.607575 96.76 
L 259.342275 96.76 
L 259.342275 64.354667 
L 256.607575 64.354667 
z
" clip-path="url(#pc46a7255b3)" style="fill-opacity: 0.6"/>
   </g>
   <g id="patch_74">
    <path d="M 259.342275 96.76 
L 262.076975 96.76 
L 262.076975 72.070222 
L 259.342275 72.070222 
z
" clip-path="url(#pc46a7255b3)" style="fill-opacity: 0.6"/>
   </g>
   <g id="patch_75">
    <path d="M 262.076975 96.76 
L 264.811675 96.76 
L 264.811675 87.501333 
L 262.076975 87.501333 
z
" clip-path="url(#pc46a7255b3)" style="fill-opacity: 0.6"/>
   </g>
   <g id="patch_76">
    <path d="M 264.811675 96.76 
L 267.546375 96.76 
L 267.546375 88.272889 
L 264.811675 88.272889 
z
" clip-path="url(#pc46a7255b3)" style="fill-opacity: 0.6"/>
   </g>
   <g id="patch_77">
    <path d="M 267.546375 96.76 
L 270.281075 96.76 
L 270.281075 84.415111 
L 267.546375 84.415111 
z
" clip-path="url(#pc46a7255b3)" style="fill-opacity: 0.6"/>
   </g>
   <g id="patch_78">
    <path d="M 270.281075 96.76 
L 273.015775 96.76 
L 273.015775 93.673778 
L 270.281075 93.673778 
z
" clip-path="url(#pc46a7255b3)" style="fill-opacity: 0.6"/>
   </g>
   <g id="patch_79">
    <path d="M 273.015775 96.76 
L 275.750475 96.76 
L 275.750475 91.359111 
L 273.015775 91.359111 
z
" clip-path="url(#pc46a7255b3)" style="fill-opacity: 0.6"/>
   </g>
   <g id="patch_80">
    <path d="M 275.750475 96.76 
L 278.485175 96.76 
L 278.485175 89.816 
L 275.750475 89.816 
z
" clip-path="url(#pc46a7255b3)" style="fill-opacity: 0.6"/>
   </g>
   <g id="patch_81">
    <path d="M 278.485175 96.76 
L 281.219875 96.76 
L 281.219875 89.044444 
L 278.485175 89.044444 
z
" clip-path="url(#pc46a7255b3)" style="fill-opacity: 0.6"/>
   </g>
   <g id="patch_82">
    <path d="M 281.219875 96.76 
L 283.954575 96.76 
L 283.954575 91.359111 
L 281.219875 91.359111 
z
" clip-path="url(#pc46a7255b3)" style="fill-opacity: 0.6"/>
   </g>
   <g id="patch_83">
    <path d="M 283.954575 96.76 
L 286.689275 96.76 
L 286.689275 91.359111 
L 283.954575 91.359111 
z
" clip-path="url(#pc46a7255b3)" style="fill-opacity: 0.6"/>
   </g>
   <g id="patch_84">
    <path d="M 286.689275 96.76 
L 289.423975 96.76 
L 289.423975 95.216889 
L 286.689275 95.216889 
z
" clip-path="url(#pc46a7255b3)" style="fill-opacity: 0.6"/>
   </g>
   <g id="patch_85">
    <path d="M 289.423975 96.76 
L 292.158675 96.76 
L 292.158675 92.902222 
L 289.423975 92.902222 
z
" clip-path="url(#pc46a7255b3)" style="fill-opacity: 0.6"/>
   </g>
   <g id="patch_86">
    <path d="M 292.158675 96.76 
L 294.893375 96.76 
L 294.893375 95.216889 
L 292.158675 95.216889 
z
" clip-path="url(#pc46a7255b3)" style="fill-opacity: 0.6"/>
   </g>
   <g id="patch_87">
    <path d="M 294.893375 96.76 
L 297.628075 96.76 
L 297.628075 93.673778 
L 294.893375 93.673778 
z
" clip-path="url(#pc46a7255b3)" style="fill-opacity: 0.6"/>
   </g>
   <g id="patch_88">
    <path d="M 297.628075 96.76 
L 300.362775 96.76 
L 300.362775 95.216889 
L 297.628075 95.216889 
z
" clip-path="url(#pc46a7255b3)" style="fill-opacity: 0.6"/>
   </g>
   <g id="patch_89">
    <path d="M 300.362775 96.76 
L 303.097475 96.76 
L 303.097475 96.76 
L 300.362775 96.76 
z
" clip-path="url(#pc46a7255b3)" style="fill-opacity: 0.6"/>
   </g>
   <g id="patch_90">
    <path d="M 303.097475 96.76 
L 305.832175 96.76 
L 305.832175 96.76 
L 303.097475 96.76 
z
" clip-path="url(#pc46a7255b3)" style="fill-opacity: 0.6"/>
   </g>
   <g id="patch_91">
    <path d="M 305.832175 96.76 
L 308.566875 96.76 
L 308.566875 95.216889 
L 305.832175 95.216889 
z
" clip-path="url(#pc46a7255b3)" style="fill-opacity: 0.6"/>
   </g>
   <g id="patch_92">
    <path d="M 308.566875 96.76 
L 311.301575 96.76 
L 311.301575 95.216889 
L 308.566875 95.216889 
z
" clip-path="url(#pc46a7255b3)" style="fill-opacity: 0.6"/>
   </g>
   <g id="patch_93">
    <path d="M 311.301575 96.76 
L 314.036275 96.76 
L 314.036275 92.902222 
L 311.301575 92.902222 
z
" clip-path="url(#pc46a7255b3)" style="fill-opacity: 0.6"/>
   </g>
   <g id="patch_94">
    <path d="M 314.036275 96.76 
L 316.770975 96.76 
L 316.770975 95.988444 
L 314.036275 95.988444 
z
" clip-path="url(#pc46a7255b3)" style="fill-opacity: 0.6"/>
   </g>
   <g id="patch_95">
    <path d="M 316.770975 96.76 
L 319.505675 96.76 
L 319.505675 96.76 
L 316.770975 96.76 
z
" clip-path="url(#pc46a7255b3)" style="fill-opacity: 0.6"/>
   </g>
   <g id="patch_96">
    <path d="M 319.505675 96.76 
L 322.240375 96.76 
L 322.240375 93.673778 
L 319.505675 93.673778 
z
" clip-path="url(#pc46a7255b3)" style="fill-opacity: 0.6"/>
   </g>
   <g id="patch_97">
    <path d="M 322.240375 96.76 
L 324.975075 96.76 
L 324.975075 95.216889 
L 322.240375 95.216889 
z
" clip-path="url(#pc46a7255b3)" style="fill-opacity: 0.6"/>
   </g>
   <g id="patch_98">
    <path d="M 324.975075 96.76 
L 327.709775 96.76 
L 327.709775 95.988444 
L 324.975075 95.988444 
z
" clip-path="url(#pc46a7255b3)" style="fill-opacity: 0.6"/>
   </g>
   <g id="patch_99">
    <path d="M 327.709775 96.76 
L 330.444475 96.76 
L 330.444475 95.988444 
L 327.709775 95.988444 
z
" clip-path="url(#pc46a7255b3)" style="fill-opacity: 0.6"/>
   </g>
   <g id="patch_100">
    <path d="M 330.444475 96.76 
L 333.179175 96.76 
L 333.179175 95.988444 
L 330.444475 95.988444 
z
" clip-path="url(#pc46a7255b3)" style="fill-opacity: 0.6"/>
   </g>
   <g id="patch_101">
    <path d="M 333.179175 96.76 
L 335.913875 96.76 
L 335.913875 96.76 
L 333.179175 96.76 
z
" clip-path="url(#pc46a7255b3)" style="fill-opacity: 0.6"/>
   </g>
   <g id="patch_102">
    <path d="M 335.913875 96.76 
L 338.648575 96.76 
L 338.648575 96.76 
L 335.913875 96.76 
z
" clip-path="url(#pc46a7255b3)" style="fill-opacity: 0.6"/>
   </g>
   <g id="patch_103">
    <path d="M 338.648575 96.76 
L 341.383275 96.76 
L 341.383275 96.76 
L 338.648575 96.76 
z
" clip-path="url(#pc46a7255b3)" style="fill-opacity: 0.6"/>
   </g>
   <g id="patch_104">
    <path d="M 341.383275 96.76 
L 344.117975 96.76 
L 344.117975 96.76 
L 341.383275 96.76 
z
" clip-path="url(#pc46a7255b3)" style="fill-opacity: 0.6"/>
   </g>
   <g id="patch_105">
    <path d="M 344.117975 96.76 
L 346.852675 96.76 
L 346.852675 96.76 
L 344.117975 96.76 
z
" clip-path="url(#pc46a7255b3)" style="fill-opacity: 0.6"/>
   </g>
   <g id="patch_106">
    <path d="M 346.852675 96.76 
L 349.587375 96.76 
L 349.587375 96.76 
L 346.852675 96.76 
z
" clip-path="url(#pc46a7255b3)" style="fill-opacity: 0.6"/>
   </g>
   <g id="patch_107">
    <path d="M 349.587375 96.76 
L 352.322075 96.76 
L 352.322075 96.76 
L 349.587375 96.76 
z
" clip-path="url(#pc46a7255b3)" style="fill-opacity: 0.6"/>
   </g>
   <g id="patch_108">
    <path d="M 352.322075 96.76 
L 355.056775 96.76 
L 355.056775 96.76 
L 352.322075 96.76 
z
" clip-path="url(#pc46a7255b3)" style="fill-opacity: 0.6"/>
   </g>
   <g id="patch_109">
    <path d="M 355.056775 96.76 
L 357.791475 96.76 
L 357.791475 96.76 
L 355.056775 96.76 
z
" clip-path="url(#pc46a7255b3)" style="fill-opacity: 0.6"/>
   </g>
   <g id="patch_110">
    <path d="M 357.791475 96.76 
L 360.526175 96.76 
L 360.526175 96.76 
L 357.791475 96.76 
z
" clip-path="url(#pc46a7255b3)" style="fill-opacity: 0.6"/>
   </g>
   <g id="patch_111">
    <path d="M 360.526175 96.76 
L 363.260875 96.76 
L 363.260875 96.76 
L 360.526175 96.76 
z
" clip-path="url(#pc46a7255b3)" style="fill-opacity: 0.6"/>
   </g>
   <g id="patch_112">
    <path d="M 363.260875 96.76 
L 365.995575 96.76 
L 365.995575 95.988444 
L 363.260875 95.988444 
z
" clip-path="url(#pc46a7255b3)" style="fill-opacity: 0.6"/>
   </g>
   <g id="patch_113">
    <path d="M 365.995575 96.76 
L 368.730275 96.76 
L 368.730275 96.76 
L 365.995575 96.76 
z
" clip-path="url(#pc46a7255b3)" style="fill-opacity: 0.6"/>
   </g>
   <g id="patch_114">
    <path d="M 368.730275 96.76 
L 371.464975 96.76 
L 371.464975 95.988444 
L 368.730275 95.988444 
z
" clip-path="url(#pc46a7255b3)" style="fill-opacity: 0.6"/>
   </g>
   <g id="patch_115">
    <path d="M 371.464975 96.76 
L 374.199675 96.76 
L 374.199675 96.76 
L 371.464975 96.76 
z
" clip-path="url(#pc46a7255b3)" style="fill-opacity: 0.6"/>
   </g>
   <g id="patch_116">
    <path d="M 374.199675 96.76 
L 376.934375 96.76 
L 376.934375 96.76 
L 374.199675 96.76 
z
" clip-path="url(#pc46a7255b3)" style="fill-opacity: 0.6"/>
   </g>
   <g id="matplotlib.axis_3">
    <g id="xtick_8">
     <g id="line2d_12">
      <g>
       <use xlink:href="#med4072a476" x="240.199375" y="96.76" style="stroke: #000000; stroke-width: 0.5"/>
      </g>
     </g>
     <g id="text_14">
      <text style="font: 200 7px 'Open Sans', sans-serif; text-anchor: middle" x="240.199375" y="109.078906" transform="rotate(-0 240.199375 109.078906)">0</text>
     </g>
    </g>
    <g id="xtick_9">
     <g id="line2d_13">
      <g>
       <use xlink:href="#med4072a476" x="267.546375" y="96.76" style="stroke: #000000; stroke-width: 0.5"/>
      </g>
     </g>
     <g id="text_15">
      <text style="font: 200 7px 'Open Sans', sans-serif; text-anchor: middle" x="267.546375" y="109.078906" transform="rotate(-0 267.546375 109.078906)">10</text>
     </g>
    </g>
    <g id="xtick_10">
     <g id="line2d_14">
      <g>
       <use xlink:href="#med4072a476" x="294.893375" y="96.76" style="stroke: #000000; stroke-width: 0.5"/>
      </g>
     </g>
     <g id="text_16">
      <text style="font: 200 7px 'Open Sans', sans-serif; text-anchor: middle" x="294.893375" y="109.078906" transform="rotate(-0 294.893375 109.078906)">20</text>
     </g>
    </g>
    <g id="xtick_11">
     <g id="line2d_15">
      <g>
       <use xlink:href="#med4072a476" x="322.240375" y="96.76" style="stroke: #000000; stroke-width: 0.5"/>
      </g>
     </g>
     <g id="text_17">
      <text style="font: 200 7px 'Open Sans', sans-serif; text-anchor: middle" x="322.240375" y="109.078906" transform="rotate(-0 322.240375 109.078906)">30</text>
     </g>
    </g>
    <g id="xtick_12">
     <g id="line2d_16">
      <g>
       <use xlink:href="#med4072a476" x="349.587375" y="96.76" style="stroke: #000000; stroke-width: 0.5"/>
      </g>
     </g>
     <g id="text_18">
      <text style="font: 200 7px 'Open Sans', sans-serif; text-anchor: middle" x="349.587375" y="109.078906" transform="rotate(-0 349.587375 109.078906)">40</text>
     </g>
    </g>
    <g id="xtick_13">
     <g id="line2d_17">
      <g>
       <use xlink:href="#med4072a476" x="376.934375" y="96.76" style="stroke: #000000; stroke-width: 0.5"/>
      </g>
     </g>
     <g id="text_19">
      <text style="font: 200 7px 'Open Sans', sans-serif; text-anchor: middle" x="376.934375" y="109.078906" transform="rotate(-0 376.934375 109.078906)">50</text>
     </g>
    </g>
    <g id="text_20">
     <text style="font: 500 7px 'Open Sans', sans-serif; text-anchor: middle" x="308.566875" y="120.041719" transform="rotate(-0 308.566875 120.041719)">SNPs per event recombination tract</text>
    </g>
   </g>
   <g id="matplotlib.axis_4">
    <g id="ytick_5">
     <g id="line2d_18">
      <g>
       <use xlink:href="#mce13686bc0" x="240.199375" y="96.76" style="stroke: #000000; stroke-width: 0.5"/>
      </g>
     </g>
     <g id="text_21">
      <text style="font: 200 7px 'Open Sans', sans-serif; text-anchor: end" x="233.199375" y="99.419453" transform="rotate(-0 233.199375 99.419453)">0</text>
     </g>
    </g>
    <g id="ytick_6">
     <g id="line2d_19">
      <g>
       <use xlink:href="#mce13686bc0" x="240.199375" y="81.328889" style="stroke: #000000; stroke-width: 0.5"/>
      </g>
     </g>
     <g id="text_22">
      <text style="font: 200 7px 'Open Sans', sans-serif; text-anchor: end" x="233.199375" y="83.988342" transform="rotate(-0 233.199375 83.988342)">20</text>
     </g>
    </g>
    <g id="ytick_7">
     <g id="line2d_20">
      <g>
       <use xlink:href="#mce13686bc0" x="240.199375" y="65.897778" style="stroke: #000000; stroke-width: 0.5"/>
      </g>
     </g>
     <g id="text_23">
      <text style="font: 200 7px 'Open Sans', sans-serif; text-anchor: end" x="233.199375" y="68.557231" transform="rotate(-0 233.199375 68.557231)">40</text>
     </g>
    </g>
    <g id="ytick_8">
     <g id="line2d_21">
      <g>
       <use xlink:href="#mce13686bc0" x="240.199375" y="50.466667" style="stroke: #000000; stroke-width: 0.5"/>
      </g>
     </g>
     <g id="text_24">
      <text style="font: 200 7px 'Open Sans', sans-serif; text-anchor: end" x="233.199375" y="53.12612" transform="rotate(-0 233.199375 53.12612)">60</text>
     </g>
    </g>
    <g id="text_25">
     <text style="font: 500 7px 'Open Sans', sans-serif; text-anchor: middle" x="219.533906" y="66.38" transform="rotate(-90 219.533906 66.38)">Count</text>
    </g>
   </g>
   <g id="patch_117">
    <path d="M 240.199375 96.76 
L 240.199375 36 
" style="fill: none; stroke: #000000; stroke-width: 0.5; stroke-linejoin: miter; stroke-linecap: square"/>
   </g>
   <g id="patch_118">
    <path d="M 240.199375 96.76 
L 376.934375 96.76 
" style="fill: none; stroke: #000000; stroke-width: 0.5; stroke-linejoin: miter; stroke-linecap: square"/>
   </g>
  </g>
 </g>
 <defs>
  <clipPath id="p8f21771e74">
   <rect x="61.984375" y="36" width="136.735" height="60.76"/>
  </clipPath>
  <clipPath id="pc46a7255b3">
   <rect x="240.199375" y="36" width="136.735" height="60.76"/>
  </clipPath>
 </defs>
</svg>
